 
<svg fill="#000000" version="1.1" id="Capa_1" xmlns="http://www.w3.org/2000/svg" xmlns:xlink="http://www.w3.org/1999/xlink" 
	 width="800px" height="800px" viewBox="0 0 73.895 73.895"
	 xml:space="preserve">
<g>
	<g>
		<path d="M20.267,21.96h3.39c0.553,0,1-0.448,1-1s-0.447-1-1-1h-3.39c-0.553,0-1,0.448-1,1S19.715,21.96,20.267,21.96z"/>
		<path d="M11.589,21.96h3.39c0.553,0,1-0.448,1-1s-0.447-1-1-1h-3.39c-0.553,0-1,0.448-1,1S11.036,21.96,11.589,21.96z"/>
		<path d="M65.288,14.401H43.28V13h2.25c0.383,0,0.732-0.219,0.898-0.563c0.168-0.345,0.123-0.754-0.113-1.055L38.018,0.852
			c-0.055-0.363-0.307-0.672-0.661-0.795c-0.135-0.046-0.273-0.065-0.41-0.052c-0.137-0.014-0.276,0.005-0.41,0.052
			c-0.354,0.123-0.606,0.432-0.661,0.795L30.94,7.114c-0.214,0.126-0.377,0.33-0.45,0.572l-2.911,3.696
			c-0.237,0.301-0.281,0.71-0.114,1.055S27.982,13,28.364,13h2.083v1.401H8.605c-1.747,0-3.169,1.421-3.169,3.169v42.58
			c0,1.748,1.422,3.17,3.169,3.17h9.262c-0.048,0.827,0.241,1.661,0.866,2.287l2.539,2.539c1.133,1.133,3.109,1.133,4.242,0
			l0.975-0.974c1.754,1.064,3.652,1.85,5.662,2.339v1.383c0,1.654,1.346,3,3,3h3.591c1.654,0,3-1.346,3-3v-1.373
			c1.999-0.486,3.897-1.274,5.663-2.35l0.973,0.974c1.135,1.135,3.112,1.132,4.242,0l2.539-2.539
			c0.625-0.625,0.916-1.46,0.867-2.287h9.262c1.748,0,3.17-1.422,3.17-3.17v-42.58C68.458,15.822,67.036,14.401,65.288,14.401z
			 M55.704,57.286c0.12-0.302,0.23-0.604,0.336-0.907c0.043-0.125,0.088-0.25,0.129-0.376c0.137-0.422,0.262-0.848,0.366-1.273
			h1.374c1.654,0,3-1.346,3-3v-3.592c0-0.801-0.312-1.554-0.879-2.12s-1.32-0.879-2.121-0.879h-1.384
			c-0.489-2.009-1.272-3.908-2.339-5.663l0.973-0.973c0.566-0.567,0.88-1.321,0.879-2.125c-0.001-0.802-0.312-1.554-0.879-2.119
			l-2.538-2.54c-1.133-1.134-3.108-1.133-4.243,0l-0.974,0.974c-0.347-0.21-0.702-0.408-1.063-0.597
			c-0.11-0.059-0.228-0.112-0.34-0.168c-0.252-0.125-0.505-0.249-0.763-0.364c-0.14-0.063-0.282-0.121-0.424-0.18
			c-0.237-0.1-0.476-0.197-0.718-0.288c-0.153-0.058-0.31-0.113-0.465-0.167c-0.117-0.042-0.232-0.088-0.353-0.127v-3.281h17.669
			c0.645,0,1.169,0.524,1.169,1.169v27.663c0,0.646-0.524,1.17-1.169,1.17h-5.332C55.648,57.444,55.673,57.364,55.704,57.286z
			 M43.856,38.925c0.148,0.094,0.296,0.191,0.439,0.291c0.107,0.073,0.215,0.146,0.32,0.223c0.146,0.107,0.288,0.22,0.432,0.332
			c0.096,0.076,0.191,0.151,0.285,0.229c0.149,0.126,0.295,0.258,0.438,0.391c0.077,0.072,0.157,0.141,0.233,0.215
			c0.182,0.175,0.354,0.357,0.523,0.542c0.033,0.037,0.068,0.071,0.104,0.108c0.201,0.224,0.393,0.455,0.576,0.69
			c0.055,0.069,0.104,0.144,0.155,0.214c0.127,0.169,0.252,0.339,0.37,0.515c0.062,0.094,0.122,0.192,0.184,0.289
			c0.1,0.157,0.199,0.313,0.293,0.475c0.062,0.107,0.117,0.216,0.176,0.324c0.084,0.156,0.168,0.313,0.246,0.473
			c0.055,0.114,0.106,0.23,0.16,0.347c0.07,0.159,0.141,0.318,0.205,0.48c0.049,0.12,0.096,0.24,0.141,0.361
			c0.061,0.164,0.117,0.329,0.17,0.495c0.039,0.123,0.078,0.245,0.115,0.369c0.049,0.171,0.094,0.344,0.137,0.518
			c0.031,0.122,0.062,0.244,0.089,0.367c0.039,0.183,0.071,0.367,0.104,0.551c0.02,0.118,0.043,0.235,0.06,0.354
			c0.028,0.205,0.05,0.41,0.069,0.617c0.01,0.103,0.022,0.202,0.029,0.305c0.021,0.308,0.035,0.619,0.035,0.933
			c0,0.354-0.016,0.706-0.043,1.055c-0.01,0.114-0.027,0.227-0.04,0.34c-0.024,0.233-0.05,0.469-0.087,0.699
			c-0.021,0.133-0.053,0.263-0.077,0.394c-0.041,0.21-0.081,0.42-0.132,0.628c-0.034,0.136-0.076,0.269-0.113,0.404
			c-0.057,0.198-0.111,0.396-0.178,0.593c-0.046,0.137-0.1,0.271-0.148,0.406c-0.07,0.188-0.143,0.378-0.222,0.563
			c-0.06,0.135-0.123,0.269-0.187,0.401c-0.084,0.181-0.17,0.361-0.265,0.539c-0.069,0.132-0.146,0.262-0.219,0.392
			c-0.101,0.174-0.202,0.347-0.312,0.517c-0.08,0.127-0.166,0.254-0.252,0.379c-0.064,0.096-0.135,0.188-0.201,0.282H26.422
			c-0.067-0.093-0.135-0.185-0.199-0.278c-0.089-0.129-0.176-0.258-0.259-0.389c-0.105-0.166-0.204-0.333-0.301-0.502
			c-0.078-0.135-0.156-0.27-0.229-0.407c-0.09-0.171-0.174-0.346-0.256-0.521c-0.066-0.14-0.133-0.279-0.194-0.421
			c-0.076-0.178-0.144-0.36-0.212-0.542c-0.054-0.143-0.109-0.283-0.158-0.427c-0.063-0.188-0.116-0.38-0.17-0.571
			c-0.04-0.141-0.084-0.281-0.119-0.423c-0.051-0.202-0.089-0.407-0.129-0.612c-0.026-0.135-0.059-0.27-0.08-0.406
			c-0.037-0.227-0.061-0.458-0.086-0.688c-0.013-0.117-0.031-0.232-0.041-0.351c-0.027-0.35-0.043-0.7-0.043-1.055
			c0-0.311,0.013-0.619,0.034-0.925c0.007-0.102,0.021-0.201,0.03-0.302c0.02-0.204,0.039-0.408,0.068-0.609
			c0.017-0.118,0.039-0.234,0.059-0.352c0.031-0.183,0.063-0.364,0.102-0.544c0.026-0.122,0.057-0.243,0.087-0.364
			c0.042-0.173,0.086-0.345,0.136-0.516c0.035-0.12,0.072-0.241,0.11-0.36c0.055-0.168,0.111-0.334,0.172-0.5
			c0.043-0.117,0.087-0.233,0.133-0.35c0.066-0.165,0.137-0.327,0.209-0.489c0.05-0.111,0.099-0.223,0.151-0.332
			c0.08-0.166,0.166-0.329,0.253-0.491c0.054-0.102,0.105-0.202,0.162-0.3c0.102-0.18,0.211-0.354,0.32-0.527
			c0.05-0.077,0.095-0.156,0.146-0.232c0.33-0.495,0.693-0.969,1.089-1.416c0.063-0.07,0.13-0.138,0.193-0.206
			c0.139-0.15,0.278-0.299,0.424-0.442c0.081-0.08,0.165-0.155,0.248-0.232c0.136-0.127,0.273-0.254,0.415-0.375
			c0.092-0.079,0.187-0.153,0.28-0.229c0.141-0.114,0.283-0.227,0.429-0.334c0.1-0.074,0.201-0.146,0.304-0.218
			c0.147-0.104,0.298-0.203,0.45-0.301c0.104-0.066,0.211-0.134,0.318-0.197c0.059-0.035,0.119-0.067,0.179-0.103v3.94
			c0,0.552,0.447,1,1,1H42.28c0.553,0,1-0.448,1-1v-4.037c0.078,0.043,0.156,0.085,0.232,0.13
			C43.63,38.786,43.743,38.854,43.856,38.925z M44.827,60.241c-0.156,0.119-0.312,0.242-0.474,0.355
			c-0.255,0.177-0.521,0.338-0.788,0.497c-0.126,0.075-0.25,0.155-0.379,0.226H30.708c-0.129-0.07-0.251-0.149-0.377-0.225
			c-0.269-0.16-0.536-0.322-0.792-0.5c-0.16-0.112-0.313-0.234-0.469-0.353c-0.232-0.179-0.462-0.36-0.683-0.556
			c-0.06-0.053-0.116-0.109-0.176-0.165h17.472c-0.059,0.055-0.115,0.111-0.176,0.165C45.287,59.882,45.058,60.063,44.827,60.241z
			 M28.523,31.625c-0.098,0.044-0.192,0.093-0.288,0.139c-0.598,0.285-1.184,0.589-1.746,0.931l-0.974-0.974
			c-1.132-1.133-3.109-1.135-4.243,0l-2.539,2.539c-0.566,0.566-0.879,1.32-0.879,2.122c0,0.802,0.313,1.555,0.879,2.122
			l0.974,0.974c-1.075,1.767-1.862,3.665-2.35,5.663h-1.374c-1.653,0-2.998,1.345-2.998,2.999v3.592c0,1.654,1.346,3,3,3h1.384
			c0.104,0.424,0.229,0.846,0.362,1.266c0.043,0.134,0.091,0.266,0.136,0.398c0.103,0.299,0.212,0.598,0.329,0.895
			c0.031,0.079,0.056,0.158,0.088,0.236h-5.34c-0.646,0-1.17-0.524-1.17-1.17V28.69c0-0.645,0.524-1.169,1.17-1.169h17.503v3.332
			c-0.053,0.018-0.103,0.043-0.155,0.062C29.689,31.125,29.098,31.36,28.523,31.625z M30.425,11l1.808-2.295
			c0.015-0.019,0.029-0.037,0.042-0.057c0.016-0.017,0.03-0.035,0.045-0.053l4.628-5.874L43.47,11h-1.188c-0.553,0-1,0.448-1,1
			v3.401v11.12v15.104h-8.833v-4.205c0.006-0.013,0.004-0.028,0.009-0.042c0.044-0.113,0.074-0.231,0.074-0.357v-5.466
			c0-0.114-0.031-0.221-0.075-0.323c-0.004-0.011-0.003-0.024-0.008-0.036v-4.675v-11.12V12c0-0.552-0.447-1-1-1H30.425z
			 M7.437,60.15V17.57c0-0.645,0.524-1.169,1.169-1.169h21.842v9.12H12.944c-1.748,0-3.17,1.421-3.17,3.169v27.663
			c0,1.748,1.422,3.17,3.17,3.17h6.283c0.014,0.026,0.027,0.048,0.041,0.074c0.148,0.278,0.296,0.544,0.442,0.791l-0.933,0.933
			H8.605C7.961,61.32,7.437,60.796,7.437,60.15z M53.745,64.192l-2.54,2.54c-0.376,0.376-1.034,0.377-1.413,0l-1.539-1.541
			c-0.34-0.338-0.867-0.389-1.262-0.125c-1.972,1.312-4.141,2.211-6.445,2.675c-0.468,0.094-0.804,0.504-0.804,0.979v2.175
			c0,0.551-0.448,1-1,1h-3.591c-0.552,0-1-0.449-1-1v-2.185c0-0.477-0.336-0.886-0.802-0.98c-2.325-0.47-4.494-1.366-6.447-2.665
			c-0.169-0.111-0.361-0.167-0.554-0.167c-0.258,0-0.514,0.101-0.707,0.293L24.1,66.732c-0.377,0.377-1.037,0.377-1.414,0
			l-2.538-2.539c-0.347-0.347-0.389-0.889-0.103-1.284c0.031-0.042,0.06-0.088,0.102-0.13l1.541-1.541
			c0.337-0.336,0.39-0.863,0.126-1.261c-0.36-0.541-0.704-1.146-1.084-1.901c-0.737-1.472-1.27-3-1.581-4.546
			c-0.095-0.466-0.505-0.802-0.98-0.802h-2.184c-0.552,0-1-0.449-1-1v-3.592c0-0.267,0.104-0.517,0.293-0.706
			c0.188-0.188,0.439-0.293,0.707-0.293h2.174c0.477,0,0.887-0.336,0.98-0.803c0.463-2.306,1.363-4.475,2.675-6.446
			c0.264-0.396,0.211-0.924-0.126-1.261l-1.541-1.542c-0.189-0.188-0.293-0.439-0.293-0.708s0.104-0.518,0.293-0.707l2.539-2.539
			c0.189-0.189,0.448-0.284,0.707-0.284c0.259,0,0.518,0.095,0.707,0.284l1.541,1.541c0.337,0.337,0.864,0.388,1.261,0.125
			c0.49-0.326,1.004-0.619,1.526-0.896c0.13-0.069,0.261-0.136,0.393-0.201c0.526-0.262,1.062-0.508,1.615-0.72
			c0.004-0.001,0.007-0.003,0.011-0.005v3.437c-0.071,0.034-0.138,0.074-0.208,0.109c-0.155,0.078-0.308,0.159-0.46,0.241
			c-0.168,0.092-0.334,0.185-0.497,0.283c-0.148,0.088-0.295,0.179-0.439,0.271c-0.159,0.104-0.316,0.207-0.471,0.315
			c-0.141,0.098-0.279,0.197-0.415,0.299c-0.151,0.113-0.299,0.229-0.444,0.346c-0.133,0.107-0.263,0.216-0.392,0.326
			c-0.142,0.123-0.279,0.249-0.416,0.376c-0.123,0.115-0.245,0.23-0.364,0.351c-0.132,0.132-0.261,0.268-0.388,0.404
			c-0.114,0.123-0.228,0.246-0.337,0.373c-0.123,0.142-0.24,0.285-0.357,0.431c-0.104,0.13-0.209,0.261-0.31,0.395
			c-0.112,0.149-0.219,0.303-0.325,0.456c-0.095,0.137-0.19,0.272-0.28,0.412c-0.102,0.158-0.197,0.32-0.294,0.48
			c-0.084,0.143-0.17,0.283-0.249,0.429c-0.092,0.167-0.176,0.336-0.261,0.506c-0.073,0.146-0.148,0.291-0.217,0.439
			c-0.081,0.176-0.153,0.354-0.228,0.533c-0.062,0.149-0.126,0.296-0.184,0.447c-0.069,0.185-0.13,0.374-0.192,0.562
			c-0.05,0.149-0.104,0.298-0.148,0.449c-0.058,0.195-0.105,0.394-0.156,0.591c-0.037,0.149-0.08,0.298-0.113,0.448
			c-0.046,0.209-0.081,0.421-0.118,0.633c-0.025,0.144-0.057,0.285-0.077,0.43c-0.035,0.236-0.057,0.478-0.08,0.718
			c-0.012,0.122-0.03,0.242-0.039,0.365c-0.027,0.366-0.042,0.733-0.042,1.102c0,3.358,1.098,6.542,3.174,9.206
			c1.327,1.703,2.958,3.071,4.849,4.067c2.145,1.13,4.558,1.728,6.978,1.728c2.455,0,4.804-0.581,6.979-1.728
			c1.89-0.996,3.521-2.364,4.85-4.067c2.072-2.663,3.17-5.846,3.17-9.206c0-5.833-3.348-11.084-8.583-13.56v-3.421
			c1.289,0.483,2.505,1.102,3.628,1.849c0.395,0.263,0.922,0.212,1.262-0.125l1.539-1.54c0.379-0.378,1.036-0.38,1.414-0.001
			l2.54,2.541c0.188,0.188,0.292,0.438,0.292,0.705c0,0.268-0.104,0.519-0.293,0.708l-1.54,1.54
			c-0.337,0.336-0.39,0.864-0.126,1.261c1.301,1.955,2.196,4.124,2.664,6.447c0.094,0.466,0.504,0.802,0.98,0.802h2.188
			c0.551,0,0.998,0.448,0.998,0.999v3.592c0,0.551-0.447,1-1,1h-2.175c-0.478,0-0.888,0.336-0.979,0.804
			c-0.093,0.455-0.209,0.909-0.341,1.362c-0.311,1.076-0.725,2.142-1.247,3.181c-0.373,0.741-0.729,1.363-1.087,1.901
			c-0.265,0.396-0.212,0.924,0.125,1.261l1.544,1.546c0.028,0.027,0.049,0.06,0.071,0.091c0.008,0.011,0.017,0.021,0.024,0.031
			C54.134,63.306,54.093,63.847,53.745,64.192z M66.458,60.15c0,0.646-0.523,1.17-1.17,1.17H55.115l-0.933-0.933
			c0.146-0.248,0.296-0.515,0.445-0.792c0.012-0.025,0.025-0.046,0.039-0.072h6.281c1.747,0,3.169-1.422,3.169-3.17V28.69
			c0-1.748-1.422-3.169-3.169-3.169H43.28V21.96h19.838c0.553,0,1-0.448,1-1s-0.447-1-1-1H43.28V16.4h22.008
			c0.646,0,1.17,0.524,1.17,1.169V60.15z"/>
	</g>
</g>
</svg>